<svg xmlns="http://www.w3.org/2000/svg" width="800" height="400" viewBox="0 0 800 400" font-family="Inter, Arial, sans-serif">
<defs>
  <pattern id="conc" width="60" height="60" patternUnits="userSpaceOnUse">
    <rect width="60" height="60" fill="#E2E8F0"/><circle cx="19.4" cy="9.1" r="2.8" fill="#CBD5E1"/><circle cx="49.3" cy="5.6" r="2.6" fill="#94A3B8"/><circle cx="12.9" cy="5.2" r="2.2" fill="#CBD5E1"/><circle cx="5.4" cy="25.5" r="3.2" fill="#CBD5E1"/><circle cx="56.8" cy="37.8" r="2.6" fill="#CBD5E1"/><circle cx="34.6" cy="23.8" r="3.5" fill="#CBD5E1"/><circle cx="33.4" cy="8.0" r="2.2" fill="#94A3B8"/><circle cx="7.1" cy="18.5" r="3.2" fill="#CBD5E1"/><circle cx="6.2" cy="34.3" r="1.7" fill="#CBD5E1"/><circle cx="32.9" cy="3.8" r="1.3" fill="#CBD5E1"/><circle cx="29.8" cy="31.9" r="3.1" fill="#CBD5E1"/><circle cx="35.1" cy="27.2" r="1.9" fill="#CBD5E1"/><circle cx="41.9" cy="14.6" r="2.6" fill="#94A3B8"/><circle cx="29.7" cy="20.6" r="2.3" fill="#94A3B8"/>
  </pattern>
  <linearGradient id="steel" x1="0" y1="0" x2="0" y2="1">
    <stop offset="0" stop-color="#CBD5E1"/><stop offset=".5" stop-color="#F8FAFC"/><stop offset="1" stop-color="#94A3B8"/>
  </linearGradient>
  <linearGradient id="motor" x1="0" y1="0" x2="0" y2="1">
    <stop offset="0" stop-color="#2563EB"/><stop offset="1" stop-color="#1E40AF"/>
  </linearGradient>
  <radialGradient id="hole" cx=".5" cy=".5" r=".5">
    <stop offset="0" stop-color="#0F172A"/><stop offset=".75" stop-color="#334155"/><stop offset="1" stop-color="#64748B"/>
  </radialGradient>
  <linearGradient id="bg" x1="0" y1="0" x2="0" y2="1">
    <stop offset="0" stop-color="#FFFFFF"/><stop offset="1" stop-color="#EFF6FF"/>
  </linearGradient>
</defs>
<rect width="800" height="400" fill="url(#bg)"/>
<rect x="0" y="0" width="800" height="400" fill="url(#conc)"/>
<circle cx="90" cy="60" r="7" fill="#334155"/><circle cx="90" cy="60" r="3" fill="#64748B"/><circle cx="90" cy="200" r="7" fill="#334155"/><circle cx="90" cy="200" r="3" fill="#64748B"/><circle cx="90" cy="340" r="7" fill="#334155"/><circle cx="90" cy="340" r="3" fill="#64748B"/><circle cx="710" cy="60" r="7" fill="#334155"/><circle cx="710" cy="60" r="3" fill="#64748B"/><circle cx="710" cy="200" r="7" fill="#334155"/><circle cx="710" cy="200" r="3" fill="#64748B"/><circle cx="710" cy="340" r="7" fill="#334155"/><circle cx="710" cy="340" r="3" fill="#64748B"/>
<rect x="250" y="60" width="300" height="280" fill="#FFFFFF" opacity=".25"/>
<circle cx="250" cy="60" r="17" fill="#334155" stroke="#CBD5E1" stroke-width="2"/>
<circle cx="280" cy="60" r="17" fill="#334155" stroke="#CBD5E1" stroke-width="2"/>
<circle cx="310" cy="60" r="17" fill="#334155" stroke="#CBD5E1" stroke-width="2"/>
<circle cx="340" cy="60" r="17" fill="#334155" stroke="#CBD5E1" stroke-width="2"/>
<circle cx="370" cy="60" r="17" fill="#334155" stroke="#CBD5E1" stroke-width="2"/>
<circle cx="400" cy="60" r="17" fill="#334155" stroke="#CBD5E1" stroke-width="2"/>
<circle cx="430" cy="60" r="17" fill="#334155" stroke="#CBD5E1" stroke-width="2"/>
<circle cx="460" cy="60" r="17" fill="#334155" stroke="#CBD5E1" stroke-width="2"/>
<circle cx="490" cy="60" r="17" fill="#334155" stroke="#CBD5E1" stroke-width="2"/>
<circle cx="520" cy="60" r="17" fill="#334155" stroke="#CBD5E1" stroke-width="2"/>
<circle cx="550" cy="60" r="17" fill="#334155" stroke="#CBD5E1" stroke-width="2"/>
<circle cx="550" cy="90" r="17" fill="#334155" stroke="#CBD5E1" stroke-width="2"/>
<circle cx="550" cy="120" r="17" fill="#334155" stroke="#CBD5E1" stroke-width="2"/>
<circle cx="550" cy="150" r="17" fill="#334155" stroke="#CBD5E1" stroke-width="2"/>
<circle cx="550" cy="180" r="17" fill="#334155" stroke="#CBD5E1" stroke-width="2"/>
<circle cx="550" cy="210" r="17" fill="#334155" stroke="#CBD5E1" stroke-width="2"/>
<circle cx="550" cy="240" r="17" fill="#334155" stroke="#CBD5E1" stroke-width="2"/>
<circle cx="550" cy="270" r="17" fill="#334155" stroke="#CBD5E1" stroke-width="2"/>
<circle cx="550" cy="300" r="17" fill="#334155" stroke="#CBD5E1" stroke-width="2"/>
<circle cx="550" cy="330" r="17" fill="#334155" stroke="#CBD5E1" stroke-width="2"/>
<circle cx="550" cy="340" r="17" fill="#334155" stroke="#CBD5E1" stroke-width="2"/>
<circle cx="520" cy="340" r="17" fill="#334155" stroke="#CBD5E1" stroke-width="2"/>
<circle cx="490" cy="340" r="17" fill="#334155" stroke="#CBD5E1" stroke-width="2"/>
<circle cx="460" cy="340" r="17" fill="#334155" stroke="#CBD5E1" stroke-width="2"/>
<circle cx="430" cy="340" r="17" fill="#334155" stroke="#CBD5E1" stroke-width="2"/>
<circle cx="400" cy="340" r="17" fill="#334155" stroke="#CBD5E1" stroke-width="2"/>
<circle cx="370" cy="340" r="17" fill="#334155" stroke="#CBD5E1" stroke-width="2"/>
<circle cx="340" cy="340" r="17" fill="#334155" stroke="#CBD5E1" stroke-width="2"/>
<circle cx="310" cy="340" r="17" fill="none" stroke="#1D4ED8" stroke-width="3" stroke-dasharray="6 5"/>
<circle cx="280" cy="340" r="17" fill="none" stroke="#1D4ED8" stroke-width="3" stroke-dasharray="6 5"/>
<circle cx="250" cy="340" r="17" fill="none" stroke="#1D4ED8" stroke-width="3" stroke-dasharray="6 5"/>
<circle cx="250" cy="310" r="17" fill="none" stroke="#1D4ED8" stroke-width="3" stroke-dasharray="6 5"/>
<circle cx="250" cy="280" r="17" fill="none" stroke="#1D4ED8" stroke-width="3" stroke-dasharray="6 5"/>
<circle cx="250" cy="250" r="17" fill="none" stroke="#1D4ED8" stroke-width="3" stroke-dasharray="6 5"/>
<circle cx="250" cy="220" r="17" fill="none" stroke="#1D4ED8" stroke-width="3" stroke-dasharray="6 5"/>
<circle cx="250" cy="190" r="17" fill="none" stroke="#1D4ED8" stroke-width="3" stroke-dasharray="6 5"/>
<circle cx="250" cy="160" r="17" fill="none" stroke="#1D4ED8" stroke-width="3" stroke-dasharray="6 5"/>
<circle cx="250" cy="130" r="17" fill="none" stroke="#1D4ED8" stroke-width="3" stroke-dasharray="6 5"/>
<circle cx="250" cy="100" r="17" fill="none" stroke="#1D4ED8" stroke-width="3" stroke-dasharray="6 5"/>
<circle cx="250" cy="70" r="17" fill="none" stroke="#1D4ED8" stroke-width="3" stroke-dasharray="6 5"/>
</svg>
