<svg xmlns="http://www.w3.org/2000/svg" width="1200" height="900" viewBox="0 0 1200 900" font-family="Inter, Arial, sans-serif">
<defs>
  <pattern id="conc" width="60" height="60" patternUnits="userSpaceOnUse">
    <rect width="60" height="60" fill="#E2E8F0"/><circle cx="19.4" cy="9.1" r="2.8" fill="#CBD5E1"/><circle cx="49.3" cy="5.6" r="2.6" fill="#94A3B8"/><circle cx="12.9" cy="5.2" r="2.2" fill="#CBD5E1"/><circle cx="5.4" cy="25.5" r="3.2" fill="#CBD5E1"/><circle cx="56.8" cy="37.8" r="2.6" fill="#CBD5E1"/><circle cx="34.6" cy="23.8" r="3.5" fill="#CBD5E1"/><circle cx="33.4" cy="8.0" r="2.2" fill="#94A3B8"/><circle cx="7.1" cy="18.5" r="3.2" fill="#CBD5E1"/><circle cx="6.2" cy="34.3" r="1.7" fill="#CBD5E1"/><circle cx="32.9" cy="3.8" r="1.3" fill="#CBD5E1"/><circle cx="29.8" cy="31.9" r="3.1" fill="#CBD5E1"/><circle cx="35.1" cy="27.2" r="1.9" fill="#CBD5E1"/><circle cx="41.9" cy="14.6" r="2.6" fill="#94A3B8"/><circle cx="29.7" cy="20.6" r="2.3" fill="#94A3B8"/>
  </pattern>
  <linearGradient id="steel" x1="0" y1="0" x2="0" y2="1">
    <stop offset="0" stop-color="#CBD5E1"/><stop offset=".5" stop-color="#F8FAFC"/><stop offset="1" stop-color="#94A3B8"/>
  </linearGradient>
  <linearGradient id="motor" x1="0" y1="0" x2="0" y2="1">
    <stop offset="0" stop-color="#2563EB"/><stop offset="1" stop-color="#1E40AF"/>
  </linearGradient>
  <radialGradient id="hole" cx=".5" cy=".5" r=".5">
    <stop offset="0" stop-color="#0F172A"/><stop offset=".75" stop-color="#334155"/><stop offset="1" stop-color="#64748B"/>
  </radialGradient>
  <linearGradient id="bg" x1="0" y1="0" x2="0" y2="1">
    <stop offset="0" stop-color="#FFFFFF"/><stop offset="1" stop-color="#EFF6FF"/>
  </linearGradient>
</defs>
<rect width="1200" height="900" fill="url(#bg)"/>
<rect x="0" y="790" width="1200" height="110" fill="#E2E8F0"/><line x1="0" y1="790" x2="1200" y2="790" stroke="#CBD5E1" stroke-width="3"/>
<rect x="110" y="40" width="240" height="750" fill="url(#conc)" stroke="#94A3B8" stroke-width="3"/>
<circle cx="142" cy="110" r="9" fill="#334155"/><circle cx="142" cy="110" r="5" fill="#64748B"/><circle cx="142" cy="230" r="9" fill="#334155"/><circle cx="142" cy="230" r="5" fill="#64748B"/><circle cx="142" cy="620" r="9" fill="#334155"/><circle cx="142" cy="620" r="5" fill="#64748B"/><circle cx="142" cy="730" r="9" fill="#334155"/><circle cx="142" cy="730" r="5" fill="#64748B"/><circle cx="318" cy="110" r="9" fill="#334155"/><circle cx="318" cy="110" r="5" fill="#64748B"/><circle cx="318" cy="230" r="9" fill="#334155"/><circle cx="318" cy="230" r="5" fill="#64748B"/><circle cx="318" cy="620" r="9" fill="#334155"/><circle cx="318" cy="620" r="5" fill="#64748B"/><circle cx="318" cy="730" r="9" fill="#334155"/><circle cx="318" cy="730" r="5" fill="#64748B"/>
<rect x="215" y="340" width="135" height="12" fill="#334155"/>
<rect x="215" y="488" width="135" height="12" fill="#334155"/>
<rect x="209" y="337" width="16" height="18" rx="3" fill="#1D4ED8"/><rect x="209" y="485" width="16" height="18" rx="3" fill="#1D4ED8"/>
<rect x="350" y="314" width="22" height="212" rx="8" fill="#334155"/>
<rect x="372" y="340" width="268" height="160" fill="url(#steel)" stroke="#64748B" stroke-width="3"/>
<line x1="390" y1="358" x2="620" y2="358" stroke="#FFFFFF" stroke-width="6" opacity=".7"/>
<rect x="640" y="386" width="50" height="68" rx="6" fill="#64748B"/>
<rect x="690" y="325" width="240" height="190" rx="28" fill="url(#motor)"/>
<line x1="800" y1="360" x2="800" y2="480" stroke="#FFFFFF" stroke-width="6" stroke-linecap="round" opacity=".35"/>
<line x1="818" y1="360" x2="818" y2="480" stroke="#FFFFFF" stroke-width="6" stroke-linecap="round" opacity=".35"/>
<line x1="836" y1="360" x2="836" y2="480" stroke="#FFFFFF" stroke-width="6" stroke-linecap="round" opacity=".35"/>
<line x1="854" y1="360" x2="854" y2="480" stroke="#FFFFFF" stroke-width="6" stroke-linecap="round" opacity=".35"/>
<line x1="872" y1="360" x2="872" y2="480" stroke="#FFFFFF" stroke-width="6" stroke-linecap="round" opacity=".35"/>
<line x1="890" y1="360" x2="890" y2="480" stroke="#FFFFFF" stroke-width="6" stroke-linecap="round" opacity=".35"/>
<rect x="714" y="370" width="60" height="100" rx="12" fill="#EFF6FF" opacity=".9"/>
<circle cx="744" cy="420" r="20" fill="#1D4ED8"/>
<path d="M900 325 v-40 a20 20 0 0 1 20 -20 h60 a20 20 0 0 1 20 20 v180" fill="none" stroke="#334155" stroke-width="18" stroke-linecap="round"/>
<rect x="750" y="515" width="120" height="45" fill="#334155"/>
<rect x="410" y="560" width="700" height="34" rx="6" fill="#334155"/>
<rect x="430" y="568" width="22" height="8" rx="2" fill="#64748B"/>
<rect x="478" y="568" width="22" height="8" rx="2" fill="#64748B"/>
<rect x="526" y="568" width="22" height="8" rx="2" fill="#64748B"/>
<rect x="574" y="568" width="22" height="8" rx="2" fill="#64748B"/>
<rect x="622" y="568" width="22" height="8" rx="2" fill="#64748B"/>
<rect x="670" y="568" width="22" height="8" rx="2" fill="#64748B"/>
<rect x="718" y="568" width="22" height="8" rx="2" fill="#64748B"/>
<rect x="766" y="568" width="22" height="8" rx="2" fill="#64748B"/>
<rect x="814" y="568" width="22" height="8" rx="2" fill="#64748B"/>
<rect x="862" y="568" width="22" height="8" rx="2" fill="#64748B"/>
<rect x="910" y="568" width="22" height="8" rx="2" fill="#64748B"/>
<rect x="958" y="568" width="22" height="8" rx="2" fill="#64748B"/>
<rect x="1006" y="568" width="22" height="8" rx="2" fill="#64748B"/>
<rect x="1054" y="568" width="22" height="8" rx="2" fill="#64748B"/>
<rect x="730" y="550" width="160" height="54" rx="10" fill="#64748B"/>
<line x1="810" y1="604" x2="810" y2="665" stroke="#334155" stroke-width="10"/>
<circle cx="810" cy="665" r="44" fill="none" stroke="#334155" stroke-width="10"/>
<line x1="810" y1="665" x2="854.0" y2="665.0" stroke="#334155" stroke-width="6"/>
<line x1="810" y1="665" x2="832.0" y2="703.1" stroke="#334155" stroke-width="6"/>
<line x1="810" y1="665" x2="788.0" y2="703.1" stroke="#334155" stroke-width="6"/>
<line x1="810" y1="665" x2="766.0" y2="665.0" stroke="#334155" stroke-width="6"/>
<line x1="810" y1="665" x2="788.0" y2="626.9" stroke="#334155" stroke-width="6"/>
<line x1="810" y1="665" x2="832.0" y2="626.9" stroke="#334155" stroke-width="6"/>
<rect x="440" y="594" width="22" height="182" fill="#334155"/><rect x="414" y="774" width="74" height="16" rx="4" fill="#0F172A"/>
<rect x="1060" y="594" width="22" height="182" fill="#334155"/><rect x="1034" y="774" width="74" height="16" rx="4" fill="#0F172A"/>
<path d="M840 325 C 840 170, 1100 170, 1120 360 S 1150 780, 1180 780" fill="none" stroke="#1D4ED8" stroke-width="10" stroke-linecap="round" opacity=".55"/>
<rect x="540" y="686" width="260" height="104" fill="url(#conc)" stroke="#94A3B8" stroke-width="3"/>
<ellipse cx="800" cy="738" rx="22" ry="52" fill="url(#conc)" stroke="#94A3B8" stroke-width="3"/>
<ellipse cx="540" cy="738" rx="22" ry="52" fill="#CBD5E1" stroke="#94A3B8" stroke-width="3"/>
<circle cx="660" cy="726" r="9" fill="#334155"/>
<line x1="60" y1="420" x2="1010" y2="420" stroke="#1D4ED8" stroke-width="3" stroke-dasharray="18 10" opacity=".7"/>
</svg>
