<svg xmlns="http://www.w3.org/2000/svg" width="800" height="400" viewBox="0 0 800 400" font-family="Inter, Arial, sans-serif">
<defs>
  <pattern id="conc" width="60" height="60" patternUnits="userSpaceOnUse">
    <rect width="60" height="60" fill="#E2E8F0"/><circle cx="19.4" cy="9.1" r="2.8" fill="#CBD5E1"/><circle cx="49.3" cy="5.6" r="2.6" fill="#94A3B8"/><circle cx="12.9" cy="5.2" r="2.2" fill="#CBD5E1"/><circle cx="5.4" cy="25.5" r="3.2" fill="#CBD5E1"/><circle cx="56.8" cy="37.8" r="2.6" fill="#CBD5E1"/><circle cx="34.6" cy="23.8" r="3.5" fill="#CBD5E1"/><circle cx="33.4" cy="8.0" r="2.2" fill="#94A3B8"/><circle cx="7.1" cy="18.5" r="3.2" fill="#CBD5E1"/><circle cx="6.2" cy="34.3" r="1.7" fill="#CBD5E1"/><circle cx="32.9" cy="3.8" r="1.3" fill="#CBD5E1"/><circle cx="29.8" cy="31.9" r="3.1" fill="#CBD5E1"/><circle cx="35.1" cy="27.2" r="1.9" fill="#CBD5E1"/><circle cx="41.9" cy="14.6" r="2.6" fill="#94A3B8"/><circle cx="29.7" cy="20.6" r="2.3" fill="#94A3B8"/>
  </pattern>
  <linearGradient id="steel" x1="0" y1="0" x2="0" y2="1">
    <stop offset="0" stop-color="#CBD5E1"/><stop offset=".5" stop-color="#F8FAFC"/><stop offset="1" stop-color="#94A3B8"/>
  </linearGradient>
  <linearGradient id="motor" x1="0" y1="0" x2="0" y2="1">
    <stop offset="0" stop-color="#2563EB"/><stop offset="1" stop-color="#1E40AF"/>
  </linearGradient>
  <radialGradient id="hole" cx=".5" cy=".5" r=".5">
    <stop offset="0" stop-color="#0F172A"/><stop offset=".75" stop-color="#334155"/><stop offset="1" stop-color="#64748B"/>
  </radialGradient>
  <linearGradient id="bg" x1="0" y1="0" x2="0" y2="1">
    <stop offset="0" stop-color="#FFFFFF"/><stop offset="1" stop-color="#EFF6FF"/>
  </linearGradient>
</defs>
<rect width="800" height="400" fill="url(#bg)"/>
<rect x="0" y="0" width="800" height="120" fill="#F1F5F9"/>
<rect x="0" y="112" width="800" height="12" fill="#CBD5E1"/>
<rect x="0" y="124" width="238" height="78" fill="url(#conc)" stroke="#94A3B8" stroke-width="3"/>
<rect x="240" y="124" width="238" height="78" fill="url(#conc)" stroke="#94A3B8" stroke-width="3"/>
<rect x="480" y="124" width="238" height="78" fill="url(#conc)" stroke="#94A3B8" stroke-width="3"/>
<rect x="720" y="124" width="238" height="78" fill="url(#conc)" stroke="#94A3B8" stroke-width="3"/>
<rect x="-120" y="204" width="238" height="78" fill="url(#conc)" stroke="#94A3B8" stroke-width="3"/>
<rect x="120" y="204" width="238" height="78" fill="url(#conc)" stroke="#94A3B8" stroke-width="3"/>
<rect x="360" y="204" width="238" height="78" fill="url(#conc)" stroke="#94A3B8" stroke-width="3"/>
<rect x="600" y="204" width="238" height="78" fill="url(#conc)" stroke="#94A3B8" stroke-width="3"/>
<path d="M0 290 Q 200 276 400 290 T 800 286 V400 H0 Z" fill="#CBD5E1"/>
<circle cx="190" cy="354" r="3.1" fill="#94A3B8"/><circle cx="483" cy="361" r="2.2" fill="#94A3B8"/><circle cx="11" cy="380" r="2.8" fill="#94A3B8"/><circle cx="187" cy="395" r="3.4" fill="#94A3B8"/><circle cx="669" cy="348" r="3.9" fill="#94A3B8"/><circle cx="120" cy="362" r="4.6" fill="#94A3B8"/><circle cx="419" cy="372" r="4.0" fill="#94A3B8"/><circle cx="51" cy="373" r="3.8" fill="#94A3B8"/><circle cx="241" cy="308" r="4.6" fill="#94A3B8"/><circle cx="378" cy="370" r="4.6" fill="#94A3B8"/><circle cx="571" cy="388" r="3.2" fill="#94A3B8"/><circle cx="641" cy="345" r="4.8" fill="#94A3B8"/><circle cx="703" cy="314" r="2.4" fill="#94A3B8"/><circle cx="174" cy="392" r="3.3" fill="#94A3B8"/><circle cx="501" cy="332" r="3.5" fill="#94A3B8"/><circle cx="309" cy="337" r="3.8" fill="#94A3B8"/><circle cx="467" cy="386" r="4.0" fill="#94A3B8"/><circle cx="743" cy="382" r="5.0" fill="#94A3B8"/><circle cx="537" cy="320" r="4.6" fill="#94A3B8"/><circle cx="772" cy="386" r="3.7" fill="#94A3B8"/><circle cx="571" cy="324" r="4.5" fill="#94A3B8"/><circle cx="459" cy="331" r="2.2" fill="#94A3B8"/><circle cx="683" cy="394" r="2.3" fill="#94A3B8"/><circle cx="640" cy="342" r="2.5" fill="#94A3B8"/><circle cx="235" cy="374" r="4.6" fill="#94A3B8"/><circle cx="35" cy="360" r="2.1" fill="#94A3B8"/><circle cx="575" cy="335" r="4.6" fill="#94A3B8"/><circle cx="785" cy="350" r="5.0" fill="#94A3B8"/><circle cx="248" cy="312" r="3.8" fill="#94A3B8"/><circle cx="25" cy="323" r="3.2" fill="#94A3B8"/><circle cx="488" cy="319" r="2.1" fill="#94A3B8"/><circle cx="694" cy="333" r="4.9" fill="#94A3B8"/><circle cx="717" cy="339" r="3.4" fill="#94A3B8"/><circle cx="416" cy="363" r="3.8" fill="#94A3B8"/><circle cx="447" cy="361" r="4.8" fill="#94A3B8"/><circle cx="406" cy="344" r="4.2" fill="#94A3B8"/><circle cx="190" cy="332" r="4.9" fill="#94A3B8"/><circle cx="417" cy="354" r="2.0" fill="#94A3B8"/><circle cx="332" cy="357" r="2.1" fill="#94A3B8"/><circle cx="493" cy="362" r="2.2" fill="#94A3B8"/>
<circle cx="400" cy="200" r="54" fill="#CBD5E1"/><circle cx="400" cy="200" r="48" fill="url(#hole)"/>
<circle cx="400" cy="200" r="48" fill="none" stroke="#334155" stroke-width="6"/>
<line x1="372.3" y1="164" x2="427.7" y2="164" stroke="#94A3B8" stroke-width="4"/>
<line x1="362.4" y1="176" x2="437.6" y2="176" stroke="#94A3B8" stroke-width="4"/>
<line x1="357.5" y1="188" x2="442.5" y2="188" stroke="#94A3B8" stroke-width="4"/>
<line x1="356.0" y1="200" x2="444.0" y2="200" stroke="#94A3B8" stroke-width="4"/>
<line x1="357.5" y1="212" x2="442.5" y2="212" stroke="#94A3B8" stroke-width="4"/>
<line x1="362.4" y1="224" x2="437.6" y2="224" stroke="#94A3B8" stroke-width="4"/>
<line x1="372.3" y1="236" x2="427.7" y2="236" stroke="#94A3B8" stroke-width="4"/>
<path d="M470 200 H560 M548 188 l12 12 l-12 12" fill="none" stroke="#1D4ED8" stroke-width="5" stroke-linecap="round" stroke-linejoin="round" opacity=".7"/>
<path d="M330 200 H240 M252 188 l-12 12 l12 12" fill="none" stroke="#1D4ED8" stroke-width="5" stroke-linecap="round" stroke-linejoin="round" opacity=".7"/>
</svg>
